# xmcd CD database file
#
# Track frame offsets:
#	150
#	23987
#	45427
#	65276
#	90859
#	110774
#	140265
#	161967
#	177258
#	195303
#
# Disc length: 2888 seconds
#
# Revision: 0
# Processed by: cddbd v1.5.2PL0 Copyright (c) Steve Scherf et al.
# Submitted via: CDex 1.79
#
DISCID=7b0b460a
DTITLE=Gogo Penguin - MAN MADE OBJECT
DYEAR=2015
DGENRE=Jazz
TTITLE0=All Res
TTITLE1=Unspeakable World 
TTITLE2=Branches Break
TTITLE3=Weird Cat
TTITLE4=Quiet Mind
TTITLE5=Smarra
TTITLE6=Initiate
TTITLE7=Gbfisysih
TTITLE8=Surrender To Mountain
TTITLE9=Protest
EXTD=YEAR: 2015
EXTT0=
EXTT1=
EXTT2=
EXTT3=
EXTT4=
EXTT5=
EXTT6=
EXTT7=
EXTT8=
EXTT9=
PLAYORDER=
